# File produced by Open Asset Import Library (http://www.assimp.sf.net)
# (assimp v3.1.202510665)

mtllib gameBoy.mtl

# vertex positions
v -254.733704 -49.661739 -305.394958
v -254.733704 34.947155 -59.127983
v -254.733704 49.661678 -59.127987
v -254.733704 49.661640 -305.394958
v -242.949875 49.661633 -318.143372
v -242.949875 49.661678 -59.127987
v 145.098648 49.661663 -159.055786
v 145.098648 39.387291 -170.673325
v -145.098648 39.387291 -170.673325
v -145.098648 49.661663 -159.055786
v 242.949875 -49.661732 -287.457306
v 254.733704 -49.661732 -274.708832
v 254.733704 -49.661640 304.535217
v 242.949875 -49.661633 317.283630
v -242.949875 -49.661633 317.283630
v -254.733704 -49.661640 304.535217
v -242.949875 -49.661743 -318.143372
v 205.788071 -49.661743 -318.143372
v 217.571899 -49.661739 -305.394958
v 217.571899 -49.661732 -287.457306
v 254.733704 34.947155 -59.127983
v 254.733704 49.661644 -274.708832
v 254.733704 49.661678 -59.127987
v -242.949875 49.661743 317.283630
v -235.289948 -37.681789 317.283630
v -235.289948 36.599243 317.283630
v 205.788071 49.661633 -318.143372
v -254.733704 34.947216 304.535217
v -145.098648 31.183880 -191.607513
v -157.163284 31.183876 -195.104843
v -166.838303 39.387287 -176.975327
v -145.098633 27.899042 -217.711945
v -172.207565 49.661663 -166.914215
v -165.995178 31.183876 -204.659744
v -182.752884 39.387287 -194.192627
v -192.052704 49.661659 -188.383896
v -169.227890 31.183874 -217.711945
v -188.578003 39.387283 -217.711945
v -199.316513 49.661652 -217.711960
v -165.995163 31.183872 -230.764160
v -182.752884 39.387280 -241.231247
v -192.052704 49.661648 -247.040024
v -157.163269 31.183870 -240.319061
v -166.838303 39.387272 -258.448578
v -172.207565 49.661648 -268.509644
v -145.098633 39.387272 -264.750549
v -145.098633 49.661644 -276.368073
v -145.098633 31.183870 -243.816391
v 235.289948 36.599243 317.283630
v 242.949875 49.661743 317.283630
v 235.289948 -37.681789 317.283630
v 235.289948 -37.681805 232.477432
v -235.289948 -37.681805 232.477432
v 145.098633 27.899042 -217.711945
v 145.098633 31.183870 -243.816391
v 145.098648 31.183880 -191.607513
v 145.098633 39.387272 -264.750549
v 145.098633 49.661644 -276.368073
v -235.289948 36.599228 232.477432
v 235.289948 36.599228 232.477432
v 242.949875 49.661678 -59.127987
v 242.949875 49.661644 -287.457306
v 217.571899 49.661640 -305.394958
v 217.571899 49.661644 -287.457306
v 254.733704 34.947216 304.535217
v 166.838303 39.387287 -176.975327
v 157.163284 31.183876 -195.104843
v 172.207565 49.661663 -166.914215
v 182.752884 39.387287 -194.192627
v 165.995178 31.183876 -204.659744
v 192.052704 49.661659 -188.383896
v 188.578003 39.387283 -217.711945
v 169.227890 31.183874 -217.711945
v 199.316513 49.661652 -217.711960
v 165.995163 31.183872 -230.764160
v 192.052704 49.661648 -247.040024
v 182.752884 39.387280 -241.231247
v 157.163269 31.183870 -240.319061
v 172.207565 49.661648 -268.509644
v 166.838303 39.387272 -258.448578

# UV coordinates
vt 0.949439 0.007326
vt 0.880375 0.208348
vt 0.868364 0.208348
vt 0.868364 0.007326
vt 0.016945 0.526010
vt 0.007326 0.515604
vt 0.007326 0.314582
vt 0.016945 0.314582
vt 0.594198 0.540663
vt 0.606858 0.540663
vt 0.606858 0.777544
vt 0.594198 0.777544
vt 0.447464 0.500962
vt 0.437845 0.490556
vt 0.437845 0.017733
vt 0.447464 0.007327
vt 0.844092 0.007327
vt 0.853711 0.017733
vt 0.853711 0.515604
vt 0.844092 0.526010
vt 0.477798 0.526010
vt 0.468180 0.515604
vt 0.468180 0.500962
vt 0.880375 0.816700
vt 0.949440 0.992674
vt 0.868364 0.992674
vt 0.868364 0.816700
vt 0.748563 0.540663
vt 0.748563 0.621738
vt 0.742311 0.611960
vt 0.742311 0.551326
vt 0.381192 0.540663
vt 0.381192 0.906957
vt 0.300117 0.906957
vt 0.300117 0.540663
vt 0.949439 0.505198
vt 0.880375 0.505198
vt 0.842614 0.636391
vt 0.852232 0.636391
vt 0.852232 0.648403
vt 0.395845 0.540663
vt 0.411233 0.540663
vt 0.411233 0.837513
vt 0.395845 0.847919
vt 0.727658 0.621738
vt 0.713487 0.621738
vt 0.713487 0.540663
vt 0.727658 0.540663
vt 0.537362 0.834647
vt 0.537362 0.844901
vt 0.519636 0.848366
vt 0.519636 0.829889
vt 0.810722 0.561751
vt 0.810722 0.540663
vt 0.820758 0.542764
vt 0.522377 0.794837
vt 0.522377 0.813314
vt 0.509996 0.815237
vt 0.509996 0.792197
vt 0.455927 0.843521
vt 0.455927 0.832900
vt 0.473129 0.829889
vt 0.473129 0.849028
vt 0.746728 0.835937
vt 0.742974 0.815998
vt 0.753595 0.815998
vt 0.802870 0.639447
vt 0.802870 0.658586
vt 0.790719 0.660256
vt 0.790719 0.636391
vt 0.696937 0.821003
vt 0.696937 0.831979
vt 0.680207 0.835776
vt 0.680207 0.815998
vt 0.826201 0.751998
vt 0.826201 0.732120
vt 0.836862 0.734734
vt 0.776066 0.639169
vt 0.776066 0.658947
vt 0.764119 0.661054
vt 0.764119 0.636391
vt 0.841441 0.829034
vt 0.830781 0.811770
vt 0.841441 0.809156
vt 0.796069 0.542771
vt 0.796069 0.562549
vt 0.784122 0.565326
vt 0.784122 0.540663
vt 0.799397 0.825137
vt 0.799397 0.814161
vt 0.816128 0.809156
vt 0.816128 0.828934
vt 0.827960 0.695997
vt 0.817523 0.677673
vt 0.827960 0.675707
vt 0.811549 0.733790
vt 0.811549 0.752929
vt 0.799397 0.755985
vt 0.799397 0.732120
vt 0.630281 0.830949
vt 0.630281 0.841570
vt 0.613079 0.847077
vt 0.613079 0.827938
vt 0.468308 0.794120
vt 0.468308 0.812596
vt 0.455927 0.815236
vt 0.455927 0.792197
vt 0.835819 0.594990
vt 0.835819 0.584737
vt 0.853545 0.579979
vt 0.853545 0.598455
vt 0.564064 0.813674
vt 0.564064 0.792197
vt 0.573919 0.795030
vt 0.007326 0.540663
vt 0.017989 0.546916
vt 0.017989 0.931039
vt 0.007326 0.937291
vt 0.057074 0.540663
vt 0.126299 0.540663
vt 0.126299 0.924786
vt 0.057074 0.924786
vt 0.513533 0.777544
vt 0.492057 0.777544
vt 0.492057 0.540663
vt 0.513533 0.540663
vt 0.528186 0.540663
vt 0.546539 0.540663
vt 0.546539 0.777544
vt 0.528186 0.777544
vt 0.455927 0.540663
vt 0.477404 0.540663
vt 0.477404 0.777544
vt 0.455927 0.777544
vt 0.579546 0.777544
vt 0.561192 0.777544
vt 0.561192 0.540663
vt 0.579545 0.540663
vt 0.096819 0.491910
vt 0.074691 0.485495
vt 0.058491 0.467970
vt 0.052562 0.444030
vt 0.058491 0.420091
vt 0.074691 0.402565
vt 0.096819 0.396151
vt 0.634171 0.777544
vt 0.621511 0.777544
vt 0.621511 0.540663
vt 0.634171 0.540663
vt 0.140952 0.540663
vt 0.210177 0.540663
vt 0.210177 0.924786
vt 0.140952 0.924786
vt 0.648824 0.717467
vt 0.648824 0.636391
vt 0.662994 0.648402
vt 0.662994 0.717467
vt 0.224830 0.924786
vt 0.224830 0.540663
vt 0.285464 0.540663
vt 0.285464 0.924786
vt 0.709457 0.732120
vt 0.709457 0.801345
vt 0.648824 0.801345
vt 0.648824 0.732120
vt 0.413574 0.314582
vt 0.333700 0.396151
vt 0.677647 0.717467
vt 0.677647 0.636391
vt 0.691818 0.636391
vt 0.691818 0.717467
vt 0.413574 0.007327
vt 0.016945 0.007327
vt 0.735295 0.717467
vt 0.735295 0.636391
vt 0.749466 0.636391
vt 0.749466 0.717467
vt 0.784744 0.801345
vt 0.724110 0.801345
vt 0.724110 0.732120
vt 0.784744 0.732120
vt 0.684192 0.540663
vt 0.698834 0.540663
vt 0.698834 0.621738
vt 0.684192 0.621738
vt 0.720642 0.717467
vt 0.706471 0.717467
vt 0.706471 0.648402
vt 0.720642 0.636391
vt 0.852232 0.663055
vt 0.842614 0.675067
vt 0.842614 0.663055
vt 0.853137 0.554382
vt 0.835411 0.559139
vt 0.835411 0.540663
vt 0.853137 0.544128
vt 0.623115 0.813285
vt 0.613079 0.794298
vt 0.623115 0.792197
vt 0.549411 0.812596
vt 0.537030 0.815236
vt 0.537030 0.792197
vt 0.549411 0.794120
vt 0.504983 0.843521
vt 0.487782 0.849028
vt 0.487782 0.829889
vt 0.504983 0.832900
vt 0.775114 0.835937
vt 0.768247 0.815998
vt 0.778868 0.815998
vt 0.790719 0.678764
vt 0.802870 0.675708
vt 0.802870 0.699573
vt 0.790719 0.697902
vt 0.728321 0.830771
vt 0.711590 0.835776
vt 0.711590 0.815998
vt 0.728321 0.819795
vt 0.836862 0.786528
vt 0.826201 0.769265
vt 0.836862 0.766650
vt 0.776066 0.697593
vt 0.764119 0.700371
vt 0.764119 0.675707
vt 0.776066 0.677815
vt 0.821166 0.600269
vt 0.810722 0.583355
vt 0.821166 0.579979
vt 0.796069 0.602535
vt 0.784122 0.604642
vt 0.784122 0.579979
vt 0.796069 0.582757
vt 0.665554 0.831979
vt 0.648824 0.835776
vt 0.648824 0.815998
vt 0.665554 0.821003
vt 0.817523 0.656681
vt 0.817523 0.636391
vt 0.827960 0.638357
vt 0.811549 0.792832
vt 0.799397 0.794503
vt 0.799397 0.770638
vt 0.811549 0.773694
vt 0.581265 0.844454
vt 0.564064 0.847465
vt 0.564064 0.828326
vt 0.581265 0.833833
vt 0.495343 0.813313
vt 0.482961 0.815236
vt 0.482961 0.792197
vt 0.495343 0.794837
vt 0.816128 0.858598
vt 0.798402 0.862063
vt 0.798402 0.843587
vt 0.816128 0.848345
vt 0.598426 0.813674
vt 0.588572 0.795030
vt 0.598426 0.792197
vt 0.377957 0.444030
vt 0.372027 0.420091
vt 0.355828 0.402565
vt 0.042421 0.540663
vt 0.042421 0.937291
vt 0.032642 0.931039
vt 0.032642 0.546916
vt 0.425886 0.847919
vt 0.425886 0.540663
vt 0.441274 0.551069
vt 0.441274 0.847919
vt 0.949439 0.519851
vt 0.880375 0.519851
vt 0.763216 0.540663
vt 0.769469 0.551326
vt 0.769469 0.611960
vt 0.763216 0.621738
vt 0.669539 0.540663
vt 0.669539 0.621738
vt 0.648824 0.621738
vt 0.648824 0.540663
vt 0.383239 0.526010
vt 0.333700 0.491910
vt 0.355828 0.485495
vt 0.392858 0.515604
vt 0.372027 0.467970
vt 0.392858 0.500962
vt 0.413574 0.500962
vt 0.423192 0.314582
vt 0.423192 0.490556

# vertex normals
vn -1.000000 0.000000 0.000000
vn -1.000000 0.000000 0.000000
vn -1.000000 0.000000 0.000000
vn 0.000000 1.000000 -0.000000
vn 0.000000 1.000000 -0.000000
vn 0.000000 1.000000 -0.000000
vn -0.087932 0.746182 -0.659910
vn -0.077423 0.843862 -0.530945
vn 0.077423 0.843862 -0.530945
vn 0.087932 0.746182 -0.659910
vn -0.000000 -1.000000 0.000000
vn 1.000000 0.000000 0.000000
vn 0.000000 0.000000 1.000000
vn 0.000000 0.000000 1.000000
vn 0.000000 0.000000 1.000000
vn 0.000000 -0.000000 -1.000000
vn -1.000000 0.000000 0.000000
vn -0.780553 0.625089 -0.000000
vn -0.734343 -0.000000 -0.678779
vn 0.038556 0.965683 -0.256847
vn 0.144830 0.962385 -0.229868
vn 0.291319 0.835029 -0.466755
vn 0.046153 0.998934 -0.000000
vn 0.348259 0.742419 -0.572302
vn 0.247380 0.960041 -0.130863
vn 0.496314 0.826682 -0.265082
vn 0.600331 0.729144 -0.328559
vn 0.283751 0.958898 -0.000000
vn 0.568611 0.822606 -0.000000
vn 0.691320 0.722549 -0.000000
vn 0.247380 0.960041 0.130863
vn 0.496315 0.826682 0.265082
vn 0.600332 0.729144 0.328559
vn 0.144830 0.962385 0.229867
vn 0.291319 0.835029 0.466755
vn 0.348260 0.742418 0.572303
vn 0.077423 0.843862 0.530945
vn 0.087932 0.746181 0.659910
vn 0.038556 0.965683 0.256847
vn -0.046153 0.998934 -0.000000
vn -0.038556 0.965683 0.256847
vn -0.038556 0.965683 -0.256847
vn -0.077423 0.843862 0.530945
vn -0.000000 1.000000 -0.000000
vn -0.000000 1.000000 -0.000000
vn 0.000000 1.000000 -0.000000
vn 0.000000 1.000000 -0.000000
vn -0.000000 1.000000 -0.000000
vn 0.000000 1.000000 -0.000000
vn 0.000000 1.000000 -0.000000
vn -0.087933 0.746181 0.659910
vn 0.000000 -1.000000 0.000000
vn -0.734343 0.000000 0.678779
vn 0.000000 1.000000 -0.000000
vn -0.000000 1.000000 -0.000000
vn 0.734343 -0.000000 -0.678779
vn 0.734343 0.000000 0.678778
vn -0.291319 0.835029 -0.466755
vn -0.144830 0.962385 -0.229867
vn -0.348259 0.742419 -0.572302
vn -0.496315 0.826682 -0.265082
vn -0.247380 0.960041 -0.130863
vn -0.600331 0.729144 -0.328559
vn -0.568611 0.822606 -0.000000
vn -0.283751 0.958898 -0.000000
vn -0.691320 0.722549 -0.000000
vn -0.247380 0.960041 0.130863
vn -0.600332 0.729144 0.328559
vn -0.496315 0.826682 0.265082
vn -0.144830 0.962385 0.229867
vn -0.348260 0.742418 0.572303
vn -0.291319 0.835029 0.466755
vn -0.000000 1.000000 -0.000000
vn 0.000000 1.000000 -0.000000
vn -0.000000 1.000000 -0.000000
vn 0.780553 0.625089 -0.000000
vn -0.000000 1.000000 -0.000000
vn -0.000000 1.000000 -0.000000
vn -0.000000 1.000000 -0.000000
vn -0.000000 1.000000 -0.000000
vn -0.000000 1.000000 -0.000000
vn -0.000000 1.000000 -0.000000
vn -0.000000 1.000000 -0.000000

# Mesh
g cartridge003
usemtl cartridge
f 4/4/3 1/1/1 2/2/2
f 2/2/2 3/3/3 4/4/3
f 6/8/6 5/5/4 4/6/5
f 4/6/5 3/7/5 6/8/6
f 10/12/10 7/9/7 8/10/8
f 8/10/8 9/11/9 10/12/10
f 20/23/11 11/13/11 12/14/11
f 20/23/11 12/14/11 13/15/11
f 20/23/11 13/15/11 14/16/11
f 20/23/11 14/16/11 15/17/11
f 20/23/11 15/17/11 16/18/11
f 20/23/11 16/18/11 1/19/11
f 20/23/11 1/19/11 17/20/11
f 20/23/11 17/20/11 18/21/11
f 18/21/11 19/22/11 20/23/11
f 23/27/12 21/24/12 12/25/12
f 12/25/12 22/26/12 23/27/12
f 26/31/15 24/28/13 15/29/14
f 15/29/14 25/30/14 26/31/15
f 27/35/16 18/32/16 17/33/16
f 17/33/16 5/34/16 27/35/16
f 1/1/1 16/36/17 28/37/17
f 28/37/17 2/2/2 1/1/1
f 6/38/14 3/39/14 2/40/14
f 24/44/18 6/41/18 2/42/18
f 2/42/18 28/43/18 24/44/18
f 5/48/19 17/45/19 1/46/19
f 1/46/19 4/47/19 5/48/19
f 9/52/9 29/49/20 30/50/21
f 30/50/21 31/51/22 9/52/9
f 32/53/23 30/54/21 29/55/20
f 10/59/10 9/56/9 31/57/22
f 31/57/22 33/58/24 10/59/10
f 31/63/22 30/60/21 34/61/25
f 34/61/25 35/62/26 31/63/22
f 32/64/23 34/65/25 30/66/21
f 33/70/24 31/67/22 35/68/26
f 35/68/26 36/69/27 33/70/24
f 35/74/26 34/71/25 37/72/28
f 37/72/28 38/73/29 35/74/26
f 32/75/23 37/76/28 34/77/25
f 36/81/27 35/78/26 38/79/29
f 38/79/29 39/80/30 36/81/27
f 32/82/23 40/83/31 37/84/28
f 39/88/30 38/85/29 41/86/32
f 41/86/32 42/87/33 39/88/30
f 38/92/29 37/89/28 40/90/31
f 40/90/31 41/91/32 38/92/29
f 32/93/23 43/94/34 40/95/31
f 42/99/33 41/96/32 44/97/35
f 44/97/35 45/98/36 42/99/33
f 41/103/32 40/100/31 43/101/34
f 43/101/34 44/102/35 41/103/32
f 45/107/36 44/104/35 46/105/37
f 46/105/37 47/106/38 45/107/36
f 44/111/35 43/108/34 48/109/39
f 48/109/39 46/110/37 44/111/35
f 32/112/23 48/113/39 43/114/34
f 50/118/13 24/115/13 26/116/15
f 26/116/15 49/117/15 50/118/13
f 25/122/5 51/119/5 52/120/5
f 52/120/5 53/121/5 25/122/5
f 32/126/23 54/123/40 55/124/41
f 55/124/41 48/125/39 32/126/23
f 9/130/9 8/127/8 56/128/42
f 56/128/42 29/129/20 9/130/9
f 29/134/20 56/131/42 54/132/40
f 54/132/40 32/133/23 29/134/20
f 48/138/39 55/135/41 57/136/43
f 57/136/43 46/137/37 48/138/39
f 47/139/44 5/5/4 45/140/45
f 45/140/45 5/5/4 42/141/46
f 42/141/46 5/5/4 39/142/47
f 5/5/4 6/8/6 39/142/47
f 39/142/47 6/8/6 36/143/48
f 33/144/49 36/143/48 6/8/6
f 10/145/50 33/144/49 6/8/6
f 46/149/37 57/146/43 58/147/51
f 58/147/51 47/148/38 46/149/37
f 49/153/52 26/150/52 59/151/52
f 59/151/52 60/152/52 49/153/52
f 16/157/53 15/154/53 24/155/53
f 24/155/53 28/156/53 16/157/53
f 52/161/14 60/158/14 59/159/14
f 59/159/14 53/160/14 52/161/14
f 26/165/12 25/162/12 53/163/12
f 53/163/12 59/164/12 26/165/12
f 10/145/50 6/8/6 61/166/54
f 61/166/54 7/167/55 10/145/50
f 12/171/56 11/168/56 62/169/56
f 62/169/56 22/170/56 12/171/56
f 24/173/5 50/172/5 61/166/54
f 61/166/54 6/8/6 24/173/5
f 19/177/56 18/174/56 27/175/56
f 27/175/56 63/176/56 19/177/56
f 52/181/17 51/178/17 49/179/17
f 49/179/17 60/180/17 52/181/17
f 19/185/12 63/182/12 64/183/12
f 64/183/12 20/184/12 19/185/12
f 50/189/57 14/186/57 13/187/57
f 13/187/57 65/188/57 50/189/57
f 61/190/14 21/191/14 23/192/14
f 67/196/59 56/193/42 8/194/8
f 8/194/8 66/195/58 67/196/59
f 54/197/40 56/198/42 67/199/59
f 66/203/58 8/200/8 7/201/7
f 7/201/7 68/202/60 66/203/58
f 70/207/62 67/204/59 66/205/58
f 66/205/58 69/206/61 70/207/62
f 54/208/40 67/209/59 70/210/62
f 69/214/61 66/211/58 68/212/60
f 68/212/60 71/213/63 69/214/61
f 73/218/65 70/215/62 69/216/61
f 69/216/61 72/217/64 73/218/65
f 54/219/40 70/220/62 73/221/65
f 72/225/64 69/222/61 71/223/63
f 71/223/63 74/224/66 72/225/64
f 54/226/40 73/227/65 75/228/67
f 77/232/69 72/229/64 74/230/66
f 74/230/66 76/231/68 77/232/69
f 75/236/67 73/233/65 72/234/64
f 72/234/64 77/235/69 75/236/67
f 54/237/40 75/238/67 78/239/70
f 80/243/72 77/240/69 76/241/68
f 76/241/68 79/242/71 80/243/72
f 78/247/70 75/244/67 77/245/69
f 77/245/69 80/246/72 78/247/70
f 57/251/43 80/248/72 79/249/71
f 79/249/71 58/250/51 57/251/43
f 55/255/41 78/252/70 80/253/72
f 80/253/72 57/254/43 55/255/41
f 54/256/40 78/257/70 55/258/41
f 74/259/73 71/260/74 61/166/54
f 68/261/75 61/166/54 71/260/74
f 7/167/55 61/166/54 68/261/75
f 25/265/14 15/262/14 14/263/14
f 14/263/14 51/264/14 25/265/14
f 21/269/76 61/266/76 50/267/76
f 50/267/76 65/268/76 21/269/76
f 65/271/12 13/270/12 12/25/12
f 12/25/12 21/24/12 65/271/12
f 14/275/14 50/272/13 49/273/15
f 49/273/15 51/274/14 14/275/14
f 64/279/16 62/276/16 11/277/16
f 11/277/16 20/278/16 64/279/16
f 63/283/80 27/280/77 58/281/78
f 58/281/78 79/282/79 63/283/80
f 64/285/5 63/283/80 79/282/79
f 79/282/79 76/284/5 64/285/5
f 62/286/81 64/285/5 76/284/5
f 76/284/5 74/259/73 62/286/81
f 61/166/54 23/287/82 74/259/73
f 62/286/81 74/259/73 23/287/82
f 23/287/82 22/288/83 62/286/81
f 47/139/44 58/281/78 27/280/77
f 27/280/77 5/5/4 47/139/44
