{
  "accessors": [
    {
      "bufferView": 0,
      "componentType": 5125,
      "count": 864,
      "type": "SCALAR"
    },
    {
      "bufferView": 1,
      "componentType": 5126,
      "count": 378,
      "max": [
        2.40407752990723,
        0.0411464273929596,
        2.68547773361206
      ],
      "min": [
        -2.40407752990723,
        -0.140243202447891,
        -3.09148859977722
      ],
      "type": "VEC3"
    },
    {
      "bufferView": 2,
      "componentType": 5126,
      "count": 378,
      "type": "VEC3"
    },
    {
      "bufferView": 3,
      "componentType": 5126,
      "count": 378,
      "type": "VEC2"
    },
    {
      "bufferView": 4,
      "componentType": 5125,
      "count": 3660,
      "type": "SCALAR"
    },
    {
      "bufferView": 5,
      "componentType": 5126,
      "count": 2341,
      "max": [
        1.82649600505829,
        -0.287129312753677,
        0.280953049659729
      ],
      "min": [
        0.478380084037781,
        -0.431755632162094,
        -1.70208692550659
      ],
      "type": "VEC3"
    },
    {
      "bufferView": 6,
      "componentType": 5126,
      "count": 2341,
      "type": "VEC3"
    },
    {
      "bufferView": 7,
      "componentType": 5126,
      "count": 2341,
      "type": "VEC2"
    },
    {
      "bufferView": 8,
      "componentType": 5125,
      "count": 942,
      "type": "SCALAR"
    },
    {
      "bufferView": 9,
      "componentType": 5126,
      "count": 278,
      "max": [
        2.02136397361755,
        -0.287130057811737,
        2.34647464752197
      ],
      "min": [
        0.125634655356407,
        -0.741935610771179,
        0.613190174102783
      ],
      "type": "VEC3"
    },
    {
      "bufferView": 10,
      "componentType": 5126,
      "count": 278,
      "type": "VEC3"
    },
    {
      "bufferView": 11,
      "componentType": 5126,
      "count": 278,
      "type": "VEC2"
    },
    {
      "bufferView": 12,
      "componentType": 5125,
      "count": 852,
      "type": "SCALAR"
    },
    {
      "bufferView": 13,
      "componentType": 5126,
      "count": 488,
      "max": [
        0.708018898963928,
        0.57642138004303,
        0.144625931978226
      ],
      "min": [
        -0.063589334487915,
        -0.105687379837036,
        -1.9371509552002e-07
      ],
      "type": "VEC3"
    },
    {
      "bufferView": 14,
      "componentType": 5126,
      "count": 488,
      "type": "VEC3"
    },
    {
      "bufferView": 15,
      "componentType": 5126,
      "count": 488,
      "type": "VEC2"
    },
    {
      "bufferView": 16,
      "componentType": 5125,
      "count": 2724,
      "type": "SCALAR"
    },
    {
      "bufferView": 17,
      "componentType": 5126,
      "count": 1766,
      "max": [
        1.86754393577576,
        0.278941631317139,
        0.144625663757324
      ],
      "min": [
        0.876452088356018,
        -0.7121502161026,
        -4.84287738800049e-07
      ],
      "type": "VEC3"
    },
    {
      "bufferView": 18,
      "componentType": 5126,
      "count": 1766,
      "type": "VEC3"
    },
    {
      "bufferView": 19,
      "componentType": 5126,
      "count": 1766,
      "type": "VEC2"
    },
    {
      "bufferView": 20,
      "componentType": 5125,
      "count": 2412,
      "type": "SCALAR"
    },
    {
      "bufferView": 21,
      "componentType": 5126,
      "count": 1546,
      "max": [
        4.19022274017334,
        0.385306805372238,
        0.14462548494339
      ],
      "min": [
        2.20718312263489,
        -0.867646098136902,
        -8.79168510437012e-07
      ],
      "type": "VEC3"
    },
    {
      "bufferView": 22,
      "componentType": 5126,
      "count": 1546,
      "type": "VEC3"
    },
    {
      "bufferView": 23,
      "componentType": 5126,
      "count": 1546,
      "type": "VEC2"
    }
  ],
  "asset": {
    "generator": "Adobe Substance 3D Painter 7.4.3",
    "version": "2.0"
  },
  "bufferViews": [
    {
      "buffer": 0,
      "byteLength": 3456,
      "target": 34963
    },
    {
      "buffer": 0,
      "byteLength": 4536,
      "byteOffset": 3456,
      "target": 34962
    },
    {
      "buffer": 0,
      "byteLength": 4536,
      "byteOffset": 7992,
      "target": 34962
    },
    {
      "buffer": 0,
      "byteLength": 3024,
      "byteOffset": 12528,
      "target": 34962
    },
    {
      "buffer": 0,
      "byteLength": 14640,
      "byteOffset": 15552,
      "target": 34963
    },
    {
      "buffer": 0,
      "byteLength": 28092,
      "byteOffset": 30192,
      "target": 34962
    },
    {
      "buffer": 0,
      "byteLength": 28092,
      "byteOffset": 58284,
      "target": 34962
    },
    {
      "buffer": 0,
      "byteLength": 18728,
      "byteOffset": 86376,
      "target": 34962
    },
    {
      "buffer": 0,
      "byteLength": 3768,
      "byteOffset": 105104,
      "target": 34963
    },
    {
      "buffer": 0,
      "byteLength": 3336,
      "byteOffset": 108872,
      "target": 34962
    },
    {
      "buffer": 0,
      "byteLength": 3336,
      "byteOffset": 112208,
      "target": 34962
    },
    {
      "buffer": 0,
      "byteLength": 2224,
      "byteOffset": 115544,
      "target": 34962
    },
    {
      "buffer": 0,
      "byteLength": 3408,
      "byteOffset": 117768,
      "target": 34963
    },
    {
      "buffer": 0,
      "byteLength": 5856,
      "byteOffset": 121176,
      "target": 34962
    },
    {
      "buffer": 0,
      "byteLength": 5856,
      "byteOffset": 127032,
      "target": 34962
    },
    {
      "buffer": 0,
      "byteLength": 3904,
      "byteOffset": 132888,
      "target": 34962
    },
    {
      "buffer": 0,
      "byteLength": 10896,
      "byteOffset": 136792,
      "target": 34963
    },
    {
      "buffer": 0,
      "byteLength": 21192,
      "byteOffset": 147688,
      "target": 34962
    },
    {
      "buffer": 0,
      "byteLength": 21192,
      "byteOffset": 168880,
      "target": 34962
    },
    {
      "buffer": 0,
      "byteLength": 14128,
      "byteOffset": 190072,
      "target": 34962
    },
    {
      "buffer": 0,
      "byteLength": 9648,
      "byteOffset": 204200,
      "target": 34963
    },
    {
      "buffer": 0,
      "byteLength": 18552,
      "byteOffset": 213848,
      "target": 34962
    },
    {
      "buffer": 0,
      "byteLength": 18552,
      "byteOffset": 232400,
      "target": 34962
    },
    {
      "buffer": 0,
      "byteLength": 12368,
      "byteOffset": 250952,
      "target": 34962
    }
  ],
  "buffers": [
    {
      "byteLength": 263320,
      "uri": "circuit.bin"
    }
  ],
  "images": [
    {
      "uri": "circuit_baseColor.png"
    },
    {
      "uri": "circuit_occlusionRoughnessMetallic.png"
    },
    {
      "uri": "circuit_normal.png"
    }
  ],
  "materials": [
    {
      "alphaMode": "OPAQUE",
      "name": "circuit",
      "normalTexture": {
        "index": 2
      },
      "occlusionTexture": {
        "index": 1
      },
      "pbrMetallicRoughness": {
        "baseColorTexture": {
          "index": 0
        },
        "metallicRoughnessTexture": {
          "index": 1
        }
      }
    }
  ],
  "meshes": [
    {
      "name": "board",
      "primitives": [
        {
          "attributes": {
            "NORMAL": 2,
            "POSITION": 1,
            "TEXCOORD_0": 3
          },
          "indices": 0,
          "material": 0,
          "mode": 4
        }
      ]
    },
    {
      "name": "chipset1",
      "primitives": [
        {
          "attributes": {
            "NORMAL": 6,
            "POSITION": 5,
            "TEXCOORD_0": 7
          },
          "indices": 4,
          "material": 0,
          "mode": 4
        }
      ]
    },
    {
      "name": "battery",
      "primitives": [
        {
          "attributes": {
            "NORMAL": 10,
            "POSITION": 9,
            "TEXCOORD_0": 11
          },
          "indices": 8,
          "material": 0,
          "mode": 4
        }
      ]
    },
    {
      "name": "chipset2",
      "primitives": [
        {
          "attributes": {
            "NORMAL": 14,
            "POSITION": 13,
            "TEXCOORD_0": 15
          },
          "indices": 12,
          "material": 0,
          "mode": 4
        }
      ]
    },
    {
      "name": "chipset3",
      "primitives": [
        {
          "attributes": {
            "NORMAL": 18,
            "POSITION": 17,
            "TEXCOORD_0": 19
          },
          "indices": 16,
          "material": 0,
          "mode": 4
        }
      ]
    },
    {
      "name": "chipset4",
      "primitives": [
        {
          "attributes": {
            "NORMAL": 22,
            "POSITION": 21,
            "TEXCOORD_0": 23
          },
          "indices": 20,
          "material": 0,
          "mode": 4
        }
      ]
    }
  ],
  "nodes": [
    {
      "children": [
        1,
        3,
        5,
        7,
        9,
        11
      ],
      "name": "RootNode"
    },
    {
      "children": [
        2
      ],
      "name": "board",
      "rotation": [
        -0.707106828689575,
        0.0,
        0.0,
        0.707106709480286
      ],
      "scale": [
        100.0,
        100.0,
        100.0
      ],
      "translation": [
        0.0,
        0.0,
        -31.8885650634766
      ]
    },
    {
      "mesh": 0,
      "name": "board"
    },
    {
      "children": [
        4
      ],
      "name": "chipset1",
      "rotation": [
        -0.707106828689575,
        0.0,
        0.0,
        0.707106709480286
      ],
      "scale": [
        100.0,
        100.0,
        100.0
      ],
      "translation": [
        0.0,
        0.0,
        -2.5215744972229
      ]
    },
    {
      "mesh": 1,
      "name": "chipset1"
    },
    {
      "children": [
        6
      ],
      "name": "battery",
      "rotation": [
        -0.707106828689575,
        0.0,
        0.0,
        0.707106709480286
      ],
      "scale": [
        100.0,
        100.0,
        100.0
      ],
      "translation": [
        0.0,
        0.0,
        -2.5215744972229
      ]
    },
    {
      "mesh": 2,
      "name": "battery"
    },
    {
      "children": [
        8
      ],
      "name": "chipset2",
      "rotation": [
        -6.88393910763807e-08,
        6.88394052872354e-08,
        -0.707106828689575,
        0.707106709480286
      ],
      "scale": [
        100.0,
        100.0,
        100.0
      ],
      "translation": [
        -85.9279251098633,
        238.415069580078,
        26.191442489624
      ]
    },
    {
      "mesh": 3,
      "name": "chipset2"
    },
    {
      "children": [
        10
      ],
      "name": "chipset3",
      "rotation": [
        -6.88393910763807e-08,
        6.88394052872354e-08,
        -0.707106828689575,
        0.707106709480286
      ],
      "scale": [
        100.0,
        100.0,
        100.0
      ],
      "translation": [
        -85.9279251098633,
        238.415069580078,
        26.191442489624
      ]
    },
    {
      "mesh": 4,
      "name": "chipset3"
    },
    {
      "children": [
        12
      ],
      "name": "chipset4",
      "rotation": [
        -6.88393910763807e-08,
        6.88394052872354e-08,
        -0.707106828689575,
        0.707106709480286
      ],
      "scale": [
        100.0,
        100.0,
        100.0
      ],
      "translation": [
        -85.9279251098633,
        238.415069580078,
        26.191442489624
      ]
    },
    {
      "mesh": 5,
      "name": "chipset4"
    }
  ],
  "samplers": [
    {
      "magFilter": 9729,
      "minFilter": 9985,
      "wrapS": 10497,
      "wrapT": 10497
    }
  ],
  "scene": 0,
  "scenes": [
    {
      "name": "Scene",
      "nodes": [
        0
      ]
    }
  ],
  "textures": [
    {
      "sampler": 0,
      "source": 0
    },
    {
      "sampler": 0,
      "source": 1
    },
    {
      "sampler": 0,
      "source": 2
    }
  ]
}