{
  "accessors": [
    {
      "bufferView": 0,
      "componentType": 5125,
      "count": 1566,
      "type": "SCALAR"
    },
    {
      "bufferView": 1,
      "componentType": 5126,
      "count": 461,
      "max": [
        0.227462574839592,
        0.187848567962646,
        0.227462574839592
      ],
      "min": [
        -0.227462574839592,
        -0.549187242984772,
        -0.227462485432625
      ],
      "type": "VEC3"
    },
    {
      "bufferView": 2,
      "componentType": 5126,
      "count": 461,
      "type": "VEC3"
    },
    {
      "bufferView": 3,
      "componentType": 5126,
      "count": 461,
      "type": "VEC2"
    }
  ],
  "asset": {
    "generator": "Adobe Substance 3D Painter 7.4.3",
    "version": "2.0"
  },
  "bufferViews": [
    {
      "buffer": 0,
      "byteLength": 6264,
      "target": 34963
    },
    {
      "buffer": 0,
      "byteLength": 5532,
      "byteOffset": 6264,
      "target": 34962
    },
    {
      "buffer": 0,
      "byteLength": 5532,
      "byteOffset": 11796,
      "target": 34962
    },
    {
      "buffer": 0,
      "byteLength": 3688,
      "byteOffset": 17328,
      "target": 34962
    }
  ],
  "buffers": [
    {
      "byteLength": 21016,
      "uri": "screw.bin"
    }
  ],
  "images": [
    {
      "uri": "screw_baseColor.png"
    },
    {
      "uri": "screw_occlusionRoughnessMetallic.png"
    },
    {
      "uri": "screw_normal.png"
    }
  ],
  "materials": [
    {
      "alphaMode": "OPAQUE",
      "name": "screw",
      "normalTexture": {
        "index": 2
      },
      "occlusionTexture": {
        "index": 1
      },
      "pbrMetallicRoughness": {
        "baseColorTexture": {
          "index": 0
        },
        "metallicRoughnessTexture": {
          "index": 1
        }
      }
    }
  ],
  "meshes": [
    {
      "name": "screw002",
      "primitives": [
        {
          "attributes": {
            "NORMAL": 2,
            "POSITION": 1,
            "TEXCOORD_0": 3
          },
          "indices": 0,
          "material": 0,
          "mode": 4
        }
      ]
    }
  ],
  "nodes": [
    {
      "children": [
        1
      ],
      "name": "RootNode"
    },
    {
      "children": [
        2
      ],
      "name": "screw002",
      "rotation": [
        -0.707106828689575,
        0.0,
        0.0,
        0.707106709480286
      ],
      "scale": [
        100.0,
        100.0,
        100.0
      ],
      "translation": [
        0.0,
        -130.3193359375,
        -102.826057434082
      ]
    },
    {
      "mesh": 0,
      "name": "screw002"
    }
  ],
  "samplers": [
    {
      "magFilter": 9729,
      "minFilter": 9985,
      "wrapS": 10497,
      "wrapT": 10497
    }
  ],
  "scene": 0,
  "scenes": [
    {
      "name": "Scene",
      "nodes": [
        0
      ]
    }
  ],
  "textures": [
    {
      "sampler": 0,
      "source": 0
    },
    {
      "sampler": 0,
      "source": 1
    },
    {
      "sampler": 0,
      "source": 2
    }
  ]
}